HIERARCHY
ROOT Hips
{
	OFFSET 0.000000 0.000000 0.000000
	CHANNELS 6 Xposition Yposition Zposition Zrotation Yrotation Xrotation 
	JOINT LHipJoint
	{
		OFFSET 0.000000 0.000000 0.000000
		CHANNELS 3 Zrotation Yrotation Xrotation
		JOINT LeftUpLeg
		{
			OFFSET 1.363060 -1.794630 0.839290
			CHANNELS 3 Zrotation Yrotation Xrotation
			JOINT LeftLeg
			{
				OFFSET 2.448110 -6.726130 0.000000
				CHANNELS 3 Zrotation Yrotation Xrotation
				JOINT LeftFoot
				{
					OFFSET 2.562200 -7.039590 0.000000
					CHANNELS 3 Zrotation Yrotation Xrotation
					JOINT LeftToeBase
					{
						OFFSET 0.157640 -0.433110 2.322550
						CHANNELS 3 Zrotation Yrotation Xrotation
						End Site
						{
							OFFSET 0.000000 0.000000 0.000000
						}
					}
				}
			}
		}
	}
	JOINT RHipJoint
	{
		OFFSET 0.000000 0.000000 0.000000
		CHANNELS 3 Zrotation Yrotation Xrotation
		JOINT RightUpLeg
		{
			OFFSET -1.305520 -1.794630 0.839290
			CHANNELS 3 Zrotation Yrotation Xrotation
			JOINT RightLeg
			{
				OFFSET -2.542530 -6.985550 0.000000
				CHANNELS 3 Zrotation Yrotation Xrotation
				JOINT RightFoot
				{
					OFFSET -2.568260 -7.056230 0.000000
					CHANNELS 3 Zrotation Yrotation Xrotation
					JOINT RightToeBase
					{
						OFFSET -0.164730 -0.452590 2.363150
						CHANNELS 3 Zrotation Yrotation Xrotation
						End Site
						{
							OFFSET 0.000000 0.000000 0.000000
						}
					}
				}
			}
		}
	}
	JOINT LowerBack
	{
		OFFSET 0.000000 0.000000 0.000000
		CHANNELS 3 Zrotation Yrotation Xrotation
		JOINT Spine
		{
			OFFSET 0.028270 2.035590 -0.193380
			CHANNELS 3 Zrotation Yrotation Xrotation
			JOINT Spine1
			{
				OFFSET 0.056720 2.048850 -0.042750
				CHANNELS 3 Zrotation Yrotation Xrotation
				JOINT Neck
				{
					OFFSET 0.000000 0.000000 0.000000
					CHANNELS 3 Zrotation Yrotation Xrotation
					JOINT Neck1
					{
						OFFSET -0.054170 1.746240 0.172020
						CHANNELS 3 Zrotation Yrotation Xrotation
						JOINT Head
						{
							OFFSET 0.104070 1.761360 -0.123970
							CHANNELS 3 Zrotation Yrotation Xrotation
							End Site
							{
								OFFSET 0.000000 0.000000 0.000000
							}
						}
					}
				}
				JOINT LeftShoulder
				{
					OFFSET 0.000000 0.000000 0.000000
					CHANNELS 3 Zrotation Yrotation Xrotation
					JOINT LeftArm
					{
						OFFSET 3.362410 1.200890 -0.311210
						CHANNELS 3 Zrotation Yrotation Xrotation
						JOINT LeftForeArm
						{
							OFFSET 4.983000 -0.000000 -0.000000
							CHANNELS 3 Zrotation Yrotation Xrotation
							JOINT LeftHand
							{
								OFFSET 3.483560 -0.000000 -0.000000
								CHANNELS 3 Zrotation Yrotation Xrotation
								JOINT LeftFingerBase
								{
									OFFSET 0.000000 0.000000 0.000000
									CHANNELS 3 Zrotation Yrotation Xrotation
									JOINT LeftHandIndex1
									{
										OFFSET 0.715260 -0.000000 -0.000000
										CHANNELS 3 Zrotation Yrotation Xrotation
										End Site
										{
											OFFSET 0.000000 0.000000 0.000000
										}
									}
								}
								JOINT LThumb
								{
									OFFSET 0.000000 0.000000 0.000000
									CHANNELS 3 Zrotation Yrotation Xrotation
									End Site
									{
										OFFSET 0.000000 0.000000 0.000000
									}
								}
							}
						}
					}
				}
				JOINT RightShoulder
				{
					OFFSET 0.000000 0.000000 0.000000
					CHANNELS 3 Zrotation Yrotation Xrotation
					JOINT RightArm
					{
						OFFSET -3.136600 1.374050 -0.404650
						CHANNELS 3 Zrotation Yrotation Xrotation
						JOINT RightForeArm
						{
							OFFSET -5.241900 -0.000000 -0.000000
							CHANNELS 3 Zrotation Yrotation Xrotation
							JOINT RightHand
							{
								OFFSET -3.444170 -0.000000 -0.000000
								CHANNELS 3 Zrotation Yrotation Xrotation
								JOINT RightFingerBase
								{
									OFFSET 0.000000 0.000000 0.000000
									CHANNELS 3 Zrotation Yrotation Xrotation
									JOINT RightHandIndex1
									{
										OFFSET -0.622530 -0.000000 -0.000000
										CHANNELS 3 Zrotation Yrotation Xrotation
										End Site
										{
											OFFSET 0.000000 0.000000 0.000000
										}
									}
								}
								JOINT RThumb
								{
									OFFSET 0.000000 0.000000 0.000000
									CHANNELS 3 Zrotation Yrotation Xrotation
									End Site
									{
										OFFSET 0.000000 0.000000 0.000000
									}
								}
							}
						}
					}
				}
			}
		}
	}
}
MOTION
Frames: 5
Frame Time: 0.016667
-1.221925 16.719124 24.676759 8.497479 -16.737876 -2.632986 -10.790888 -10.046634 18.035718 -6.869760 -51.182002 6.327450 14.927412 38.176043 -43.295587 8.049507 -20.827843 22.014776 0.000000 0.000000 0.000000 -0.856716 -1.999126 -2.390118 12.789630 6.601471 6.577003 -13.366489 -14.002904 50.738250 11.756139 -28.955595 24.959342 0.000000 0.000000 0.000000 19.301218 7.277874 -14.118894 -25.610867 11.845276 54.228092 3.026139 3.739132 -43.039614 18.181413 -1.614080 -15.948162 -5.054161 -0.640317 -24.863394 0.000000 0.000000 0.000000 -8.062081 18.619846 15.466789 -67.924391 7.095356 0.894666 -155.920194 -82.852828 -179.806662 5.354305 -8.068088 0.094614 5.376065 -8.056397 0.000000 0.000000 0.000000 0.000000 0.000000 0.000000 0.000000 -4.056487 -21.468912 -9.970623 79.304097 20.565121 33.310480 140.809280 78.405772 -178.711945 -1.746816 0.270704 0.739768 -1.359131 0.473944 -0.000003 0.000000 0.000000 0.000000 0.000000 0.000000 0.000000 
-1.238061 16.745824 24.866500 8.883111 -16.757994 -2.673885 -10.170304 -9.896670 17.244672 -10.322553 -51.880169 8.261442 13.477799 40.677529 -43.398447 8.684807 -23.401561 18.264086 0.000000 0.000000 0.000000 -0.811607 -2.221802 -1.817742 11.998699 6.586564 6.363751 -13.369991 -14.011659 50.275659 11.662338 -29.964096 26.452349 0.000000 0.000000 0.000000 19.003697 7.261929 -14.198874 -25.770441 11.890009 54.134767 3.097811 3.721119 -42.994341 18.164464 -1.596681 -15.885087 -5.038673 -0.629991 -24.890689 0.000000 0.000000 0.000000 -8.020772 18.570078 15.489811 -67.937243 7.096136 0.893518 -155.924123 -82.855881 -179.806988 5.355371 -8.068670 0.094447 5.377177 -8.056958 0.000000 0.000000 0.000000 0.000000 0.000000 0.000000 0.000000 -4.029407 -21.505095 -9.981699 79.307610 20.566614 33.326797 140.792575 78.427610 -178.712741 -1.742274 0.269102 0.739288 -1.355021 0.472160 -0.000000 0.000000 0.000000 0.000000 0.000000 0.000000 0.000000 
-1.252012 16.773570 25.052266 9.295324 -16.770086 -2.716568 -9.455313 -9.676991 16.397428 -13.982557 -52.363626 10.219124 11.916844 43.120691 -43.256513 10.015216 -26.574345 13.756733 0.000000 0.000000 0.000000 -0.795566 -2.486998 -1.224761 11.192700 6.580584 6.111325 -13.376224 -14.013637 49.802627 11.503660 -30.906669 27.892323 0.000000 0.000000 0.000000 18.666967 7.234967 -14.271299 -25.917764 11.930321 54.028767 3.174125 3.698730 -42.956019 18.157716 -1.585430 -15.829164 -5.031380 -0.624643 -24.909816 0.000000 0.000000 0.000000 -7.985227 18.524881 15.515057 -67.943820 7.102893 0.892623 -155.928988 -82.855732 -179.807125 5.353844 -8.066445 0.094378 5.375651 -8.054738 0.000000 0.000000 0.000000 0.000000 0.000000 0.000000 0.000000 -4.004727 -21.542846 -9.991362 79.311266 20.563572 33.347408 140.771994 78.449945 -178.713973 -1.736765 0.267408 0.738565 -1.350081 0.470261 -0.000000 0.000000 0.000000 0.000000 0.000000 0.000000 0.000000 
-1.262998 16.802211 25.233841 9.742456 -16.768309 -2.762577 -8.640348 -9.372651 15.494553 -17.833729 -52.586874 12.162527 10.165715 45.643087 -42.854737 12.441108 -30.489294 8.117006 0.000000 0.000000 0.000000 -0.826044 -2.806054 -0.608318 10.377356 6.588242 5.815118 -13.384891 -14.008195 49.324498 11.277303 -31.774308 29.280990 0.000000 0.000000 0.000000 18.311224 7.205181 -14.349145 -26.086616 11.979515 53.917438 3.264679 3.667947 -42.913226 18.161397 -1.580213 -15.762974 -5.035970 -0.624499 -24.926706 0.000000 0.000000 0.000000 -7.942230 18.469886 15.546853 -67.955615 7.114587 0.887019 -155.937365 -82.856167 -179.807532 5.352884 -8.063992 0.094172 5.374722 -8.052276 0.000000 0.000000 0.000000 0.000000 0.000000 0.000000 0.000000 -3.990157 -21.577236 -10.013995 79.347581 20.576286 33.391481 140.710892 78.503490 -178.716261 -1.725758 0.263244 0.737242 -1.340054 0.465775 -0.000000 0.000000 0.000000 0.000000 0.000000 0.000000 0.000000 
-1.270413 16.831323 25.411190 10.225203 -16.721135 -2.807629 -7.705998 -8.929170 14.512108 -21.878280 -52.470495 14.056530 8.086851 48.458649 -42.225534 16.460603 -35.261871 0.733136 0.000000 0.000000 0.000000 -0.914852 -3.194771 0.035669 9.559190 6.605346 5.470012 -13.392267 -14.004058 48.845005 10.982722 -32.563469 30.618044 0.000000 0.000000 0.000000 17.932208 7.163759 -14.440460 -26.277546 12.030514 53.802410 3.374834 3.622324 -42.864025 18.175855 -1.582024 -15.685847 -5.054096 -0.630413 -24.941414 0.000000 0.000000 0.000000 -7.891240 18.400593 15.587238 -67.973023 7.131596 0.876703 -155.949339 -82.857253 -179.808221 5.352548 -8.061330 0.093823 5.374452 -8.049589 0.000000 0.000000 0.000000 0.000000 0.000000 0.000000 0.000000 -3.986790 -21.611039 -10.050109 79.416685 20.603557 33.460292 140.608414 78.590042 -178.719632 -1.709002 0.256595 0.735307 -1.324698 0.458688 -0.000000 0.000000 0.000000 0.000000 0.000000 0.000000 0.000000 
